<?xml version="1.0" encoding="UTF-8"?>
<svg id="Capa_2" data-name="Capa 2" xmlns="http://www.w3.org/2000/svg" xmlns:xlink="http://www.w3.org/1999/xlink" viewBox="0 0 5669.29 5669.29">
  <defs>
    <style>
      .cls-1 {
        fill: none;
      }

      .cls-2 {
        fill: #f9744b;
      }

      .cls-3 {
        fill: #03b59b;
      }

      .cls-4 {
        fill: #f4627d;
      }

      .cls-5 {
        fill: #e05362;
      }

      .cls-6 {
        fill: #ffa683;
      }

      .cls-7 {
        clip-path: url(#clippath);
      }
    </style>
    <clipPath id="clippath">
      <rect class="cls-1" width="5669.29" height="5669.29"/>
    </clipPath>
  </defs>
  <g id="Capa_1-2" data-name="Capa 1">
    <g class="cls-7">
      <path class="cls-5" d="M-997.26,4279.71c345.14-329.12,575.22-711.82,787.62-1109.82C29.3,2733.62,82.39,2266.73,232.84,1799.84c17.7-45.92,53.1-76.54,61.95-122.46C445.23,1065.06,852.31,605.82,1312.49,161.89c97.35-99.5,168.14-191.35,256.64-275.54,88.5-84.19,168.14-145.43,247.79-221.96,212.39-221.96,460.18-375.04,725.67-551.08,380.53-260.23,787.62-443.93,1274.34-543.43,35.4-7.65,70.8,7.65,106.2,0,88.5-30.62,168.14-30.62,256.64-30.62,35.4-7.65,70.8-22.96,106.2-30.61,132.74-7.65,265.49-7.65,398.23,0,26.55,7.65,44.25,22.96,70.8,30.62,168.14,7.65,345.14,15.31,495.58,91.85,35.4,15.31,79.65,0,115.04,7.65,97.35,30.62,185.84,84.19,283.19,122.46,17.7,7.65,53.1-7.65,70.8,0,274.34,107.16,566.38,153.08,867.26,107.16,141.59-15.31,256.64,0,389.38-15.31,26.55-7.65,44.25-22.96,70.8-30.62,26.55,0,53.1,7.65,70.8,0,53.1-22.96,106.19-22.96,141.59-38.27,24.86-10.75,48.36-22.49,70.8-35.01v-3148.45s-9557.59,0-9557.59,0V5274.48c433.43-299.76,842.7-630.58,1230.09-994.77"/>
      <path class="cls-4" d="M-315.84,7226.48c203.54-153.08,345.14-329.12,504.43-528.12,415.93-512.81,725.67-979.7,1150.45-1484.86,44.25-45.92,106.2-76.54,141.59-122.46,371.68-474.54,716.82-864.9,1150.45-1270.55,35.4-22.96,1336.29-727.12,1451.34-796.01,221.24-137.77,1477.89-497.51,1495.59-505.16,44.25-22.96,194.69-61.23,212.39-68.89,141.59-61.23,292.04-76.54,433.63-122.46,44.25-15.31,70.8-38.27,106.19-61.23,17.7-7.65,53.1,7.65,70.8,0,176.99-61.23,336.29-168.39,495.58-229.62,155.16-55.92,300.81-136.4,433.63-229.4V-1250.83c-22.43,12.52-45.93,24.26-70.8,35.01-35.4,15.31-88.5,15.31-141.59,38.27-17.7,7.65-44.25,0-70.8,0-26.55,7.65-44.25,22.96-70.8,30.62-132.74,15.31-247.79,0-389.38,15.31-300.89,45.92-592.93,0-867.26-107.16-17.7-7.65-53.1,7.65-70.8,0-97.35-38.27-185.84-91.85-283.19-122.46-35.4-7.65-79.65,7.65-115.04-7.65-150.44-76.54-327.44-84.19-495.58-91.85-26.55-7.65-44.25-22.96-70.8-30.62-132.75-7.65-265.49-7.65-398.23,0-35.4,7.65-70.8,22.96-106.2,30.62-88.5,0-168.14,0-256.64,30.62-35.4,7.65-70.8-7.65-106.2,0-486.73,99.5-893.81,283.2-1274.34,543.43-265.49,176.04-513.28,329.12-725.67,551.08-79.65,76.54-159.29,137.77-247.79,221.96-88.5,84.19-159.29,176.04-256.64,275.54-460.18,443.93-867.26,903.17-1017.71,1515.48-8.85,45.92-44.25,76.54-61.95,122.46-150.44,466.89-203.54,933.78-442.48,1370.06-212.39,398.01-442.48,780.7-787.62,1109.82-387.4,364.19-796.66,695.01-1230.1,994.77v3230.9c699.82-338.06,1300.15-798.76,1911.52-1278.91"/>
      <path class="cls-5" d="M6401.02,2266.73c-17.7,7.65-53.1-7.65-70.8,0-35.4,22.96-61.95,45.92-106.19,61.23-141.59,45.92-292.04,61.23-433.63,122.46-17.7,7.65-44.25-7.65-70.8,0-53.1,15.31-97.35,45.92-141.59,68.89-17.7,7.65-53.1-7.65-70.8,0-88.5,45.92-185.84,68.89-292.04,91.85-141.59,30.62-256.64,107.16-389.38,145.43-256.64,68.89-522.13,130.12-743.37,267.89-115.04,68.89-247.79,84.19-371.68,145.42-26.55,15.31-44.25,45.92-70.8,61.23-318.59,145.43-628.32,306.16-893.81,528.12-35.4,22.96-79.65,38.27-115.04,61.23-433.63,405.66-778.77,796.01-1150.45,1270.55-35.4,45.92-97.35,76.54-141.59,122.46-424.78,505.16-734.52,972.05-1150.45,1484.86-159.29,199-300.89,375.04-504.43,528.12-611.37,480.15-1211.69,940.85-1911.52,1278.91v2838.91s9557.59,0,9557.59,0V1807.72c-132.81,93-278.47,173.48-433.63,229.4-159.29,61.23-318.59,168.39-495.58,229.62"/>
      <path class="cls-2" d="M-1890.63,11344.3c.62-13.93,1.24-27.94,1.95-42.17,648.41-.08,1116.03-1199.91,1319.3-1614.45,446.38-910.13,953.99-1319.39,2084.26-1553.14,1238.15-256.1,2056.56-619.81,2196.48-1799.9,132.92-1121.15,414.07-2009.93,1643.2-2578.38,640.62-296.28,1216.65-276.31,1740.1-759.27,74.16-68.43,153.98-144.43,235.58-226.48v8573.79s-9220.86,0-9220.86,0Z"/>
      <path class="cls-6" d="M-1360.36,11344.3c96.37-57.63,230.18-45.85,397.97-72.48,346.64-55.03,771.95-208.72,969.65-487.17,332.75-468.65,168.14-1043.69,696.73-1438.48,1424.17-1063.44,4361.53-60.47,5081.18-2017.88,217.79-592.57,16.64-1285.02,385.05-1848.58,229.38-350.93,692.92-576.65,1160.01-603.9v6468.5s-8690.59,0-8690.59,0Z"/>
      <path class="cls-3" d="M-2227.36,684.25v-5062.96s9557.58,0,9557.58,0c-188.23,602.25-833.21,1337.09-1305.18,1409.7-862.05,132.59-1683.82-439.77-2566.18-165.53-1023.63,318.01-680.39,1177.13-1207.72,1812.11-586.7,706.64-1006.23,294.86-1731.39,112.18-676.13-170.37-1276.95,84.82-1675.55,585.94-353.21,443.87-533.17,988.14-1071.56,1308.57"/>
      <path class="cls-4" d="M-2227.36,6000.81v2504.58c1808.33-461.71,3808.06-3355.63,3808.06-3355.63,0,0,1500-1841.86,3354.39-2379.25,1825.36-528.97,2395.13-962.8,2395.13-962.8V27.39S2274.35,2944.06,2274.35,2944.06l2062.66-1400.59L7330.23-198.68v-1135.9s-390.19,205.2-1137.71,138.03c-747.52-67.18-1348.65-669.42-2927.14-138.03C1686.9-803.19,232.82,1003.53,17.77,1862.62c-215.04,859.08-762.89,2413.4-2245.13,3303.47v834.72Z"/>
    </g>
  </g>
</svg>